<svg width="150" height="150" viewBox="0 0 150 150" fill="none" xmlns="http://www.w3.org/2000/svg">
<path d="M7.5 22.5C7.5 18.5218 9.08035 14.7064 11.8934 11.8934C14.7064 9.08035 18.5218 7.5 22.5 7.5V22.5" fill="#E2F5FF"/>
<path d="M45 7.5H52.5V15L45 22.5H37.5V15L45 7.5Z" fill="#E2F5FF"/>
<path d="M67.5 7.5C67.5 11.4782 69.0804 15.2936 71.8934 18.1066C74.7064 20.9196 78.5218 22.5 82.5 22.5V7.5" fill="#E2F5FF"/>
<path d="M105 22.5C109.142 22.5 112.5 19.1421 112.5 15C112.5 10.8579 109.142 7.5 105 7.5C100.858 7.5 97.5 10.8579 97.5 15C97.5 19.1421 100.858 22.5 105 22.5Z" fill="#E2F5FF"/>
<path d="M135 7.5H142.5V15L135 22.5H127.5V15L135 7.5Z" fill="#E2F5FF"/>
<path d="M15 52.5C19.1421 52.5 22.5 49.1421 22.5 45C22.5 40.8579 19.1421 37.5 15 37.5C10.8579 37.5 7.5 40.8579 7.5 45C7.5 49.1421 10.8579 52.5 15 52.5Z" fill="#E2F5FF"/>
<path d="M45 37.5H52.5V45L45 52.5H37.5V45L45 37.5Z" fill="#E2F5FF"/>
<path d="M75 37.5L82.5 45L75 52.5L67.5 45L75 37.5Z" fill="#E2F5FF"/>
<path d="M105 37.5L112.5 45L105 52.5L97.5 45L105 37.5Z" fill="#E2F5FF"/>
<path d="M135 37.5L142.5 45L135 52.5L127.5 45L135 37.5Z" fill="#E2F5FF"/>
<path d="M15 67.5H22.5V75L15 82.5H7.5V75L15 67.5Z" fill="#E2F5FF"/>
<path d="M37.5 82.5C41.4782 82.5 45.2936 80.9197 48.1066 78.1066C50.9197 75.2936 52.5 71.4782 52.5 67.5H37.5" fill="#E2F5FF"/>
<path d="M75 67.5H82.5V75L75 82.5H67.5V75L75 67.5Z" fill="#E2F5FF"/>
<path d="M105 67.5L112.5 75L105 82.5L97.5 75L105 67.5Z" fill="#E2F5FF"/>
<path d="M127.5 67.5C131.478 67.5 135.294 69.0804 138.107 71.8934C140.92 74.7064 142.5 78.5218 142.5 82.5H127.5" fill="#E2F5FF"/>
<path d="M7.5 112.5C7.5 108.522 9.08035 104.706 11.8934 101.893C14.7064 99.0804 18.5218 97.5 22.5 97.5V112.5" fill="#E2F5FF"/>
<path d="M45 97.5L52.5 105L45 112.5L37.5 105L45 97.5Z" fill="#E2F5FF"/>
<path d="M75 112.5C79.1421 112.5 82.5 109.142 82.5 105C82.5 100.858 79.1421 97.5 75 97.5C70.8579 97.5 67.5 100.858 67.5 105C67.5 109.142 70.8579 112.5 75 112.5Z" fill="#E2F5FF"/>
<path d="M97.5 112.5C101.478 112.5 105.294 110.92 108.107 108.107C110.92 105.294 112.5 101.478 112.5 97.5H97.5" fill="#E2F5FF"/>
<path d="M127.5 97.5C127.5 101.478 129.08 105.294 131.893 108.107C134.706 110.92 138.522 112.5 142.5 112.5V97.5" fill="#E2F5FF"/>
<path d="M15 127.5H22.5V135L15 142.5H7.5V135L15 127.5Z" fill="#E2F5FF"/>
<path d="M45 142.5C49.1421 142.5 52.5 139.142 52.5 135C52.5 130.858 49.1421 127.5 45 127.5C40.8579 127.5 37.5 130.858 37.5 135C37.5 139.142 40.8579 142.5 45 142.5Z" fill="#E2F5FF"/>
<path d="M75 127.5H82.5V135L75 142.5H67.5V135L75 127.5Z" fill="#E2F5FF"/>
<path d="M97.5 127.5C101.478 127.5 105.294 129.08 108.107 131.893C110.92 134.706 112.5 138.522 112.5 142.5L97.5 127.5C97.5 131.478 99.0804 135.294 101.893 138.107C104.706 140.92 108.522 142.5 112.5 142.5" fill="#E2F5FF"/>
<path d="M127.5 142.5C127.5 138.522 129.08 134.706 131.893 131.893C134.706 129.08 138.522 127.5 142.5 127.5V142.5" fill="#E2F5FF"/>
</svg>
